# MagicaVoxel @ ephtracy

# material
mtllib monu9-stair.mtl
usemtl palette

# normals
vn -1 0 0
vn 1 0 0
vn 0 0 1
vn 0 0 -1
vn 0 -1 0
vn 0 1 0

# texcoords
vt 0.158203 0.5
vt 0.228516 0.5

# verts
v 19.5 20 47.5
v 19.5 20 18.5
v 19.5 22 47.5
v 19.5 22 18.5
v 21.5 39 29.5
v 21.5 39 17.5
v 21.5 44 29.5
v 21.5 44 19.5
v 21.5 52 17.5
v 21.5 52 3.5
v 21.5 54 19.5
v 21.5 54 5.5
v 21.5 59 5.5
v 21.5 59 3.5
v 27.5 22 47.5
v 27.5 22 38.5
v 27.5 30 47.5
v 27.5 30 38.5
v 34.5 37 29.5
v 34.5 37 17.5
v 34.5 39 29.5
v 34.5 39 17.5
v 35.5 30 47.5
v 35.5 30 38.5
v 35.5 37 38.5
v 35.5 37 29.5
v 35.5 39 47.5
v 35.5 39 29.5
v 26.5 20 38.5
v 26.5 20 18.5
v 26.5 22 38.5
v 26.5 22 18.5
v 29.5 20 47.5
v 29.5 20 38.5
v 29.5 28 47.5
v 29.5 28 38.5
v 34.5 44 19.5
v 34.5 44 17.5
v 34.5 52 17.5
v 34.5 52 3.5
v 34.5 54 19.5
v 34.5 54 5.5
v 34.5 59 5.5
v 34.5 59 3.5
v 35.5 39 29.5
v 35.5 39 17.5
v 35.5 44 29.5
v 35.5 44 17.5
v 37.5 28 47.5
v 37.5 28 38.5
v 37.5 37 47.5
v 37.5 37 38.5
v 43.5 37 47.5
v 43.5 37 17.5
v 43.5 39 47.5
v 43.5 39 17.5
v 19.5 20 47.5
v 19.5 22 47.5
v 27.5 22 47.5
v 27.5 30 47.5
v 29.5 20 47.5
v 29.5 28 47.5
v 35.5 30 47.5
v 35.5 39 47.5
v 37.5 28 47.5
v 37.5 37 47.5
v 43.5 37 47.5
v 43.5 39 47.5
v 21.5 39 29.5
v 21.5 44 29.5
v 34.5 37 29.5
v 34.5 39 29.5
v 35.5 37 29.5
v 35.5 39 29.5
v 35.5 44 29.5
v 21.5 44 19.5
v 21.5 54 19.5
v 34.5 44 19.5
v 34.5 54 19.5
v 21.5 54 5.5
v 21.5 59 5.5
v 34.5 54 5.5
v 34.5 59 5.5
v 26.5 20 38.5
v 26.5 22 38.5
v 27.5 22 38.5
v 27.5 30 38.5
v 29.5 20 38.5
v 29.5 28 38.5
v 35.5 30 38.5
v 35.5 37 38.5
v 37.5 28 38.5
v 37.5 37 38.5
v 19.5 20 18.5
v 19.5 22 18.5
v 26.5 20 18.5
v 26.5 22 18.5
v 21.5 39 17.5
v 21.5 52 17.5
v 34.5 37 17.5
v 34.5 39 17.5
v 34.5 44 17.5
v 34.5 52 17.5
v 35.5 39 17.5
v 35.5 44 17.5
v 43.5 37 17.5
v 43.5 39 17.5
v 21.5 52 3.5
v 21.5 59 3.5
v 34.5 52 3.5
v 34.5 59 3.5
v 19.5 20 47.5
v 29.5 20 47.5
v 26.5 20 38.5
v 29.5 20 38.5
v 19.5 20 18.5
v 26.5 20 18.5
v 29.5 28 47.5
v 37.5 28 47.5
v 29.5 28 38.5
v 37.5 28 38.5
v 37.5 37 47.5
v 43.5 37 47.5
v 35.5 37 38.5
v 37.5 37 38.5
v 34.5 37 29.5
v 35.5 37 29.5
v 34.5 37 17.5
v 43.5 37 17.5
v 21.5 39 29.5
v 34.5 39 29.5
v 21.5 39 17.5
v 34.5 39 17.5
v 21.5 52 17.5
v 34.5 52 17.5
v 21.5 52 3.5
v 34.5 52 3.5
v 19.5 22 47.5
v 27.5 22 47.5
v 20.5 22 46.5
v 26.5 22 46.5
v 25.5 22 39.5
v 26.5 22 39.5
v 26.5 22 38.5
v 27.5 22 38.5
v 20.5 22 19.5
v 25.5 22 19.5
v 19.5 22 18.5
v 26.5 22 18.5
v 27.5 30 47.5
v 35.5 30 47.5
v 28.5 30 46.5
v 34.5 30 46.5
v 28.5 30 39.5
v 34.5 30 39.5
v 27.5 30 38.5
v 35.5 30 38.5
v 35.5 39 47.5
v 43.5 39 47.5
v 36.5 39 46.5
v 42.5 39 46.5
v 35.5 39 29.5
v 36.5 39 18.5
v 42.5 39 18.5
v 35.5 39 17.5
v 43.5 39 17.5
v 21.5 44 29.5
v 35.5 44 29.5
v 22.5 44 28.5
v 34.5 44 28.5
v 22.5 44 20.5
v 34.5 44 20.5
v 21.5 44 19.5
v 34.5 44 19.5
v 34.5 44 17.5
v 35.5 44 17.5
v 21.5 54 19.5
v 34.5 54 19.5
v 22.5 54 17.5
v 33.5 54 17.5
v 22.5 54 7.5
v 33.5 54 7.5
v 21.5 54 5.5
v 34.5 54 5.5
v 21.5 59 5.5
v 34.5 59 5.5
v 21.5 59 3.5
v 34.5 59 3.5

# faces
f 3/2/1 2/2/1 1/2/1
f 4/2/1 2/2/1 3/2/1
f 7/2/1 6/2/1 5/2/1
f 8/2/1 6/2/1 7/2/1
f 9/2/1 6/2/1 8/2/1
f 11/2/1 9/2/1 8/2/1
f 11/2/1 10/2/1 9/2/1
f 12/2/1 10/2/1 11/2/1
f 13/2/1 10/2/1 12/2/1
f 14/2/1 10/2/1 13/2/1
f 17/2/1 16/2/1 15/2/1
f 18/2/1 16/2/1 17/2/1
f 21/2/1 20/2/1 19/2/1
f 22/2/1 20/2/1 21/2/1
f 25/2/1 24/2/1 23/2/1
f 27/2/1 25/2/1 23/2/1
f 27/2/1 26/2/1 25/2/1
f 28/2/1 26/2/1 27/2/1
f 29/2/2 30/2/2 31/2/2
f 31/2/2 30/2/2 32/2/2
f 33/2/2 34/2/2 35/2/2
f 35/2/2 34/2/2 36/2/2
f 37/2/2 38/2/2 39/2/2
f 37/2/2 39/2/2 41/2/2
f 39/2/2 40/2/2 41/2/2
f 41/2/2 40/2/2 42/2/2
f 42/2/2 40/2/2 43/2/2
f 43/2/2 40/2/2 44/2/2
f 45/2/2 46/2/2 47/2/2
f 47/2/2 46/2/2 48/2/2
f 49/2/2 50/2/2 51/2/2
f 51/2/2 50/2/2 52/2/2
f 53/2/2 54/2/2 55/2/2
f 55/2/2 54/2/2 56/2/2
f 59/2/3 58/2/3 57/2/3
f 61/2/3 59/2/3 57/2/3
f 61/2/3 60/2/3 59/2/3
f 62/2/3 60/2/3 61/2/3
f 63/2/3 60/2/3 62/2/3
f 65/2/3 63/2/3 62/2/3
f 65/2/3 64/2/3 63/2/3
f 66/2/3 64/2/3 65/2/3
f 67/2/3 64/2/3 66/2/3
f 68/2/3 64/2/3 67/2/3
f 72/2/3 70/2/3 69/2/3
f 73/2/3 72/2/3 71/2/3
f 74/2/3 70/2/3 72/2/3
f 74/2/3 72/2/3 73/2/3
f 75/2/3 70/2/3 74/2/3
f 78/2/3 77/2/3 76/2/3
f 79/2/3 77/2/3 78/2/3
f 82/2/3 81/2/3 80/2/3
f 83/2/3 81/2/3 82/2/3
f 84/2/4 85/2/4 86/2/4
f 84/2/4 86/2/4 88/2/4
f 86/2/4 87/2/4 88/2/4
f 88/2/4 87/2/4 89/2/4
f 89/2/4 87/2/4 90/2/4
f 89/2/4 90/2/4 92/2/4
f 90/2/4 91/2/4 92/2/4
f 92/2/4 91/2/4 93/2/4
f 94/2/4 95/2/4 96/2/4
f 96/2/4 95/2/4 97/2/4
f 98/2/4 99/2/4 101/2/4
f 101/2/4 99/2/4 102/2/4
f 102/2/4 99/2/4 103/2/4
f 100/2/4 101/2/4 104/2/4
f 101/2/4 102/2/4 104/2/4
f 104/2/4 102/2/4 105/2/4
f 100/2/4 104/2/4 106/2/4
f 106/2/4 104/2/4 107/2/4
f 108/2/4 109/2/4 110/2/4
f 110/2/4 109/2/4 111/2/4
f 114/2/5 113/2/5 112/2/5
f 115/2/5 113/2/5 114/2/5
f 116/2/5 114/2/5 112/2/5
f 117/2/5 114/2/5 116/2/5
f 120/2/5 119/2/5 118/2/5
f 121/2/5 119/2/5 120/2/5
f 125/2/5 123/2/5 122/2/5
f 127/2/5 125/2/5 124/2/5
f 128/2/5 127/2/5 126/2/5
f 129/2/5 123/2/5 125/2/5
f 129/2/5 127/2/5 128/2/5
f 129/2/5 125/2/5 127/2/5
f 132/2/5 131/2/5 130/2/5
f 133/2/5 131/2/5 132/2/5
f 136/2/5 135/2/5 134/2/5
f 137/2/5 135/2/5 136/2/5
f 138/2/6 139/2/6 140/2/6
f 140/2/6 139/2/6 141/2/6
f 140/1/6 141/1/6 142/1/6
f 141/2/6 139/2/6 143/2/6
f 142/1/6 141/1/6 143/1/6
f 142/2/6 143/2/6 144/2/6
f 143/2/6 139/2/6 144/2/6
f 144/2/6 139/2/6 145/2/6
f 138/2/6 140/2/6 146/2/6
f 140/1/6 142/1/6 146/1/6
f 142/2/6 144/2/6 147/2/6
f 146/1/6 142/1/6 147/1/6
f 138/2/6 146/2/6 148/2/6
f 146/2/6 147/2/6 148/2/6
f 147/2/6 144/2/6 149/2/6
f 148/2/6 147/2/6 149/2/6
f 150/2/6 151/2/6 152/2/6
f 152/2/6 151/2/6 153/2/6
f 150/2/6 152/2/6 154/2/6
f 152/1/6 153/1/6 154/1/6
f 153/2/6 151/2/6 155/2/6
f 154/1/6 153/1/6 155/1/6
f 150/2/6 154/2/6 156/2/6
f 154/2/6 155/2/6 156/2/6
f 155/2/6 151/2/6 157/2/6
f 156/2/6 155/2/6 157/2/6
f 158/2/6 159/2/6 160/2/6
f 160/2/6 159/2/6 161/2/6
f 158/2/6 160/2/6 162/2/6
f 160/1/6 161/1/6 163/1/6
f 162/2/6 160/2/6 163/2/6
f 161/2/6 159/2/6 164/2/6
f 163/1/6 161/1/6 164/1/6
f 162/2/6 163/2/6 165/2/6
f 163/2/6 164/2/6 165/2/6
f 164/2/6 159/2/6 166/2/6
f 165/2/6 164/2/6 166/2/6
f 167/2/6 168/2/6 169/2/6
f 169/2/6 168/2/6 170/2/6
f 167/2/6 169/2/6 171/2/6
f 169/1/6 170/1/6 171/1/6
f 170/2/6 168/2/6 172/2/6
f 171/1/6 170/1/6 172/1/6
f 167/2/6 171/2/6 173/2/6
f 171/2/6 172/2/6 173/2/6
f 172/2/6 168/2/6 174/2/6
f 173/2/6 172/2/6 174/2/6
f 174/2/6 168/2/6 175/2/6
f 175/2/6 168/2/6 176/2/6
f 177/2/6 178/2/6 179/2/6
f 179/2/6 178/2/6 180/2/6
f 177/2/6 179/2/6 181/2/6
f 179/1/6 180/1/6 181/1/6
f 180/2/6 178/2/6 182/2/6
f 181/1/6 180/1/6 182/1/6
f 177/2/6 181/2/6 183/2/6
f 181/2/6 182/2/6 183/2/6
f 182/2/6 178/2/6 184/2/6
f 183/2/6 182/2/6 184/2/6
f 185/2/6 186/2/6 187/2/6
f 187/2/6 186/2/6 188/2/6
