# MagicaVoxel @ ephtracy

# material
mtllib monu9-stair.mtl
usemtl palette

# normals
vn -1 0 0
vn 1 0 0
vn 0 0 1
vn 0 0 -1
vn 0 -1 0
vn 0 1 0

# texcoords
vt 0.158203 0.5
vt 0.228516 0.5

# verts
v 19.5 20 47.5
v 19.5 20 18.5
v 19.5 22 47.5
v 19.5 22 18.5
v 21.5 39 29.5
v 21.5 39 17.5
v 21.5 44 29.5
v 21.5 44 19.5
v 21.5 52 17.5
v 21.5 52 3.5
v 21.5 54 19.5
v 21.5 54 5.5
v 21.5 59 5.5
v 21.5 59 3.5
v 27.5 22 47.5
v 27.5 22 45.5
v 27.5 22 40.5
v 27.5 22 38.5
v 27.5 30 47.5
v 27.5 30 45.5
v 27.5 30 40.5
v 27.5 30 38.5
v 34.5 37 29.5
v 34.5 37 17.5
v 34.5 38 27.5
v 34.5 38 21.5
v 34.5 39 29.5
v 34.5 39 27.5
v 34.5 39 21.5
v 34.5 39 17.5
v 35.5 30 47.5
v 35.5 30 45.5
v 35.5 30 40.5
v 35.5 30 38.5
v 35.5 37 38.5
v 35.5 37 29.5
v 35.5 39 47.5
v 35.5 39 45.5
v 35.5 39 40.5
v 35.5 39 29.5
v 26.5 20 38.5
v 26.5 20 18.5
v 26.5 22 38.5
v 26.5 22 18.5
v 29.5 20 47.5
v 29.5 20 38.5
v 29.5 28 47.5
v 29.5 28 38.5
v 34.5 44 19.5
v 34.5 44 17.5
v 34.5 52 17.5
v 34.5 52 3.5
v 34.5 54 19.5
v 34.5 54 5.5
v 34.5 59 5.5
v 34.5 59 3.5
v 35.5 39 29.5
v 35.5 39 27.5
v 35.5 39 21.5
v 35.5 39 17.5
v 35.5 44 29.5
v 35.5 44 27.5
v 35.5 44 21.5
v 35.5 44 17.5
v 37.5 28 47.5
v 37.5 28 38.5
v 37.5 30 46.5
v 37.5 30 45.5
v 37.5 37 47.5
v 37.5 37 46.5
v 37.5 37 45.5
v 37.5 37 38.5
v 42.5 30 46.5
v 42.5 30 45.5
v 42.5 37 46.5
v 42.5 37 45.5
v 43.5 37 47.5
v 43.5 37 17.5
v 43.5 39 47.5
v 43.5 39 17.5
v 19.5 20 47.5
v 19.5 22 47.5
v 27.5 22 47.5
v 27.5 30 47.5
v 29.5 20 47.5
v 29.5 28 47.5
v 35.5 30 47.5
v 35.5 39 47.5
v 37.5 28 47.5
v 37.5 37 47.5
v 43.5 37 47.5
v 43.5 39 47.5
v 37.5 30 46.5
v 37.5 37 46.5
v 42.5 30 46.5
v 42.5 37 46.5
v 21.5 39 29.5
v 21.5 44 29.5
v 34.5 37 29.5
v 34.5 39 29.5
v 35.5 37 29.5
v 35.5 39 29.5
v 35.5 44 29.5
v 21.5 44 19.5
v 21.5 54 19.5
v 23.5 44 19.5
v 23.5 54 19.5
v 32.5 44 19.5
v 32.5 54 19.5
v 34.5 44 19.5
v 34.5 54 19.5
v 21.5 54 5.5
v 21.5 59 5.5
v 23.5 54 5.5
v 23.5 59 5.5
v 32.5 54 5.5
v 32.5 59 5.5
v 34.5 54 5.5
v 34.5 59 5.5
v 37.5 30 45.5
v 37.5 37 45.5
v 42.5 30 45.5
v 42.5 37 45.5
v 26.5 20 38.5
v 26.5 22 38.5
v 27.5 22 38.5
v 27.5 30 38.5
v 29.5 20 38.5
v 29.5 28 38.5
v 35.5 30 38.5
v 35.5 37 38.5
v 37.5 28 38.5
v 37.5 37 38.5
v 19.5 20 18.5
v 19.5 22 18.5
v 26.5 20 18.5
v 26.5 22 18.5
v 21.5 39 17.5
v 21.5 52 17.5
v 34.5 37 17.5
v 34.5 39 17.5
v 34.5 44 17.5
v 34.5 52 17.5
v 35.5 39 17.5
v 35.5 44 17.5
v 43.5 37 17.5
v 43.5 39 17.5
v 21.5 52 3.5
v 21.5 59 3.5
v 34.5 52 3.5
v 34.5 59 3.5
v 19.5 20 47.5
v 29.5 20 47.5
v 26.5 20 38.5
v 29.5 20 38.5
v 19.5 20 18.5
v 26.5 20 18.5
v 29.5 28 47.5
v 37.5 28 47.5
v 29.5 28 38.5
v 37.5 28 38.5
v 37.5 30 46.5
v 42.5 30 46.5
v 37.5 30 45.5
v 42.5 30 45.5
v 37.5 37 47.5
v 43.5 37 47.5
v 37.5 37 46.5
v 42.5 37 46.5
v 37.5 37 45.5
v 42.5 37 45.5
v 35.5 37 38.5
v 37.5 37 38.5
v 34.5 37 29.5
v 35.5 37 29.5
v 34.5 37 17.5
v 43.5 37 17.5
v 21.5 39 29.5
v 34.5 39 29.5
v 34.5 39 27.5
v 34.5 39 21.5
v 21.5 39 17.5
v 34.5 39 17.5
v 21.5 52 17.5
v 34.5 52 17.5
v 21.5 52 3.5
v 34.5 52 3.5
v 19.5 22 47.5
v 27.5 22 47.5
v 21.5 22 45.5
v 27.5 22 45.5
v 24.5 22 40.5
v 27.5 22 40.5
v 26.5 22 38.5
v 27.5 22 38.5
v 21.5 22 19.5
v 24.5 22 19.5
v 19.5 22 18.5
v 26.5 22 18.5
v 27.5 30 47.5
v 35.5 30 47.5
v 27.5 30 45.5
v 35.5 30 45.5
v 27.5 30 40.5
v 35.5 30 40.5
v 27.5 30 38.5
v 35.5 30 38.5
v 35.5 39 47.5
v 43.5 39 47.5
v 35.5 39 45.5
v 41.5 39 45.5
v 35.5 39 40.5
v 37.5 39 40.5
v 35.5 39 29.5
v 35.5 39 27.5
v 37.5 39 27.5
v 35.5 39 21.5
v 41.5 39 21.5
v 35.5 39 17.5
v 43.5 39 17.5
v 21.5 44 29.5
v 35.5 44 29.5
v 23.5 44 27.5
v 35.5 44 27.5
v 32.5 44 21.5
v 35.5 44 21.5
v 21.5 44 19.5
v 23.5 44 19.5
v 32.5 44 19.5
v 34.5 44 19.5
v 34.5 44 17.5
v 35.5 44 17.5
v 21.5 54 19.5
v 23.5 54 19.5
v 32.5 54 19.5
v 34.5 54 19.5
v 21.5 54 5.5
v 23.5 54 5.5
v 32.5 54 5.5
v 34.5 54 5.5
v 21.5 59 5.5
v 23.5 59 5.5
v 32.5 59 5.5
v 34.5 59 5.5
v 23.5 59 4.5
v 32.5 59 4.5
v 21.5 59 3.5
v 34.5 59 3.5

# faces
f 3/2/1 2/2/1 1/2/1
f 4/2/1 2/2/1 3/2/1
f 7/2/1 6/2/1 5/2/1
f 8/2/1 6/2/1 7/2/1
f 9/2/1 6/2/1 8/2/1
f 11/2/1 9/2/1 8/2/1
f 11/2/1 10/2/1 9/2/1
f 12/2/1 10/2/1 11/2/1
f 13/2/1 10/2/1 12/2/1
f 14/2/1 10/2/1 13/2/1
f 19/2/1 16/2/1 15/2/1
f 20/1/1 17/1/1 16/1/1
f 20/2/1 16/2/1 19/2/1
f 21/2/1 18/2/1 17/2/1
f 21/1/1 17/1/1 20/1/1
f 22/2/1 18/2/1 21/2/1
f 25/2/1 24/2/1 23/2/1
f 26/2/1 24/2/1 25/2/1
f 27/2/1 25/2/1 23/2/1
f 28/1/1 26/1/1 25/1/1
f 28/2/1 25/2/1 27/2/1
f 29/2/1 24/2/1 26/2/1
f 29/1/1 26/1/1 28/1/1
f 30/2/1 24/2/1 29/2/1
f 35/2/1 34/2/1 33/2/1
f 37/2/1 32/2/1 31/2/1
f 38/1/1 33/1/1 32/1/1
f 38/2/1 32/2/1 37/2/1
f 39/2/1 36/2/1 35/2/1
f 39/1/1 33/1/1 38/1/1
f 39/2/1 35/2/1 33/2/1
f 40/2/1 36/2/1 39/2/1
f 41/2/2 42/2/2 43/2/2
f 43/2/2 42/2/2 44/2/2
f 45/2/2 46/2/2 47/2/2
f 47/2/2 46/2/2 48/2/2
f 49/2/2 50/2/2 51/2/2
f 49/2/2 51/2/2 53/2/2
f 51/2/2 52/2/2 53/2/2
f 53/2/2 52/2/2 54/2/2
f 54/2/2 52/2/2 55/2/2
f 55/2/2 52/2/2 56/2/2
f 57/2/2 58/2/2 61/2/2
f 58/1/2 59/1/2 62/1/2
f 61/2/2 58/2/2 62/2/2
f 59/2/2 60/2/2 63/2/2
f 62/1/2 59/1/2 63/1/2
f 63/2/2 60/2/2 64/2/2
f 65/2/2 66/2/2 67/2/2
f 67/2/2 66/2/2 68/2/2
f 65/2/2 67/2/2 69/2/2
f 69/2/2 67/2/2 70/2/2
f 68/2/2 66/2/2 71/2/2
f 71/2/2 66/2/2 72/2/2
f 73/2/2 74/2/2 75/2/2
f 75/2/2 74/2/2 76/2/2
f 77/2/2 78/2/2 79/2/2
f 79/2/2 78/2/2 80/2/2
f 83/2/3 82/2/3 81/2/3
f 85/2/3 83/2/3 81/2/3
f 85/2/3 84/2/3 83/2/3
f 86/2/3 84/2/3 85/2/3
f 87/2/3 84/2/3 86/2/3
f 89/2/3 87/2/3 86/2/3
f 89/2/3 88/2/3 87/2/3
f 90/2/3 88/2/3 89/2/3
f 91/2/3 88/2/3 90/2/3
f 92/2/3 88/2/3 91/2/3
f 95/2/3 94/2/3 93/2/3
f 96/2/3 94/2/3 95/2/3
f 100/2/3 98/2/3 97/2/3
f 101/2/3 100/2/3 99/2/3
f 102/2/3 98/2/3 100/2/3
f 102/2/3 100/2/3 101/2/3
f 103/2/3 98/2/3 102/2/3
f 106/2/3 105/2/3 104/2/3
f 107/2/3 105/2/3 106/2/3
f 108/1/3 107/1/3 106/1/3
f 109/1/3 107/1/3 108/1/3
f 110/2/3 109/2/3 108/2/3
f 111/2/3 109/2/3 110/2/3
f 114/2/3 113/2/3 112/2/3
f 115/2/3 113/2/3 114/2/3
f 116/1/3 115/1/3 114/1/3
f 117/1/3 115/1/3 116/1/3
f 118/2/3 117/2/3 116/2/3
f 119/2/3 117/2/3 118/2/3
f 120/2/4 121/2/4 122/2/4
f 122/2/4 121/2/4 123/2/4
f 124/2/4 125/2/4 126/2/4
f 124/2/4 126/2/4 128/2/4
f 126/2/4 127/2/4 128/2/4
f 128/2/4 127/2/4 129/2/4
f 129/2/4 127/2/4 130/2/4
f 129/2/4 130/2/4 132/2/4
f 130/2/4 131/2/4 132/2/4
f 132/2/4 131/2/4 133/2/4
f 134/2/4 135/2/4 136/2/4
f 136/2/4 135/2/4 137/2/4
f 138/2/4 139/2/4 141/2/4
f 141/2/4 139/2/4 142/2/4
f 142/2/4 139/2/4 143/2/4
f 140/2/4 141/2/4 144/2/4
f 141/2/4 142/2/4 144/2/4
f 144/2/4 142/2/4 145/2/4
f 140/2/4 144/2/4 146/2/4
f 146/2/4 144/2/4 147/2/4
f 148/2/4 149/2/4 150/2/4
f 150/2/4 149/2/4 151/2/4
f 154/2/5 153/2/5 152/2/5
f 155/2/5 153/2/5 154/2/5
f 156/2/5 154/2/5 152/2/5
f 157/2/5 154/2/5 156/2/5
f 160/2/5 159/2/5 158/2/5
f 161/2/5 159/2/5 160/2/5
f 164/2/5 163/2/5 162/2/5
f 165/2/5 163/2/5 164/2/5
f 168/2/5 167/2/5 166/2/5
f 169/2/5 167/2/5 168/2/5
f 171/2/5 167/2/5 169/2/5
f 173/2/5 171/2/5 170/2/5
f 175/2/5 173/2/5 172/2/5
f 176/2/5 175/2/5 174/2/5
f 177/2/5 167/2/5 171/2/5
f 177/2/5 175/2/5 176/2/5
f 177/2/5 171/2/5 173/2/5
f 177/2/5 173/2/5 175/2/5
f 180/2/5 179/2/5 178/2/5
f 181/2/5 180/2/5 178/2/5
f 182/2/5 181/2/5 178/2/5
f 183/2/5 181/2/5 182/2/5
f 186/2/5 185/2/5 184/2/5
f 187/2/5 185/2/5 186/2/5
f 188/2/6 189/2/6 190/2/6
f 190/2/6 189/2/6 191/2/6
f 190/1/6 191/1/6 192/1/6
f 192/1/6 191/1/6 193/1/6
f 192/2/6 193/2/6 194/2/6
f 194/2/6 193/2/6 195/2/6
f 188/2/6 190/2/6 196/2/6
f 190/1/6 192/1/6 196/1/6
f 192/2/6 194/2/6 197/2/6
f 196/1/6 192/1/6 197/1/6
f 188/2/6 196/2/6 198/2/6
f 196/2/6 197/2/6 198/2/6
f 197/2/6 194/2/6 199/2/6
f 198/2/6 197/2/6 199/2/6
f 200/2/6 201/2/6 202/2/6
f 202/2/6 201/2/6 203/2/6
f 202/1/6 203/1/6 204/1/6
f 204/1/6 203/1/6 205/1/6
f 204/2/6 205/2/6 206/2/6
f 206/2/6 205/2/6 207/2/6
f 208/2/6 209/2/6 210/2/6
f 210/2/6 209/2/6 211/2/6
f 210/1/6 211/1/6 212/1/6
f 212/1/6 211/1/6 213/1/6
f 212/2/6 213/2/6 214/2/6
f 214/2/6 213/2/6 215/2/6
f 213/1/6 211/1/6 216/1/6
f 215/2/6 213/2/6 216/2/6
f 215/1/6 216/1/6 217/1/6
f 211/2/6 209/2/6 218/2/6
f 217/1/6 216/1/6 218/1/6
f 216/1/6 211/1/6 218/1/6
f 217/2/6 218/2/6 219/2/6
f 218/2/6 209/2/6 220/2/6
f 219/2/6 218/2/6 220/2/6
f 221/2/6 222/2/6 223/2/6
f 223/2/6 222/2/6 224/2/6
f 223/1/6 224/1/6 225/1/6
f 225/1/6 224/1/6 226/1/6
f 221/2/6 223/2/6 227/2/6
f 223/1/6 225/1/6 228/1/6
f 227/2/6 223/2/6 228/2/6
f 225/2/6 226/2/6 229/2/6
f 228/1/6 225/1/6 229/1/6
f 229/2/6 226/2/6 230/2/6
f 230/2/6 226/2/6 231/2/6
f 231/2/6 226/2/6 232/2/6
f 233/2/6 234/2/6 237/2/6
f 234/1/6 235/1/6 238/1/6
f 237/2/6 234/2/6 238/2/6
f 235/2/6 236/2/6 239/2/6
f 238/1/6 235/1/6 239/1/6
f 239/2/6 236/2/6 240/2/6
f 241/2/6 242/2/6 245/2/6
f 242/1/6 243/1/6 245/1/6
f 243/2/6 244/2/6 246/2/6
f 245/1/6 243/1/6 246/1/6
f 241/2/6 245/2/6 247/2/6
f 245/2/6 246/2/6 247/2/6
f 246/2/6 244/2/6 248/2/6
f 247/2/6 246/2/6 248/2/6
