# MagicaVoxel @ ephtracy

# material
mtllib monu9-Z.mtl
usemtl palette

# normals
vn -1 0 0
vn 1 0 0
vn 0 0 1
vn 0 0 -1
vn 0 -1 0
vn 0 1 0

# texcoords
vt 0.158203 0.5
vt 0.228516 0.5
vt 0.244141 0.5

# verts
v 19.5 1 18.5
v 19.5 1 -3.5
v 19.5 3 18.5
v 19.5 3 -3.5
v 34.5 1 -3.5
v 34.5 1 -17.5
v 34.5 3 -3.5
v 34.5 3 -17.5
v 26.5 1 18.5
v 26.5 1 3.5
v 26.5 3 18.5
v 26.5 3 3.5
v 41.5 1 3.5
v 41.5 1 -17.5
v 41.5 3 3.5
v 41.5 3 -17.5
v 19.5 1 18.5
v 19.5 3 18.5
v 26.5 1 18.5
v 26.5 3 18.5
v 26.5 1 3.5
v 26.5 3 3.5
v 41.5 1 3.5
v 41.5 3 3.5
v 19.5 1 -3.5
v 19.5 3 -3.5
v 34.5 1 -3.5
v 34.5 3 -3.5
v 34.5 1 -17.5
v 34.5 3 -17.5
v 41.5 1 -17.5
v 41.5 3 -17.5
v 19.5 1 18.5
v 26.5 1 18.5
v 26.5 1 3.5
v 41.5 1 3.5
v 19.5 1 -3.5
v 34.5 1 -3.5
v 34.5 1 -17.5
v 41.5 1 -17.5
v 19.5 3 18.5
v 26.5 3 18.5
v 20.5 3 17.5
v 25.5 3 17.5
v 21.5 3 16.5
v 24.5 3 16.5
v 21.5 3 13.5
v 24.5 3 13.5
v 20.5 3 12.5
v 25.5 3 12.5
v 26.5 3 3.5
v 41.5 3 3.5
v 19.5 3 -3.5
v 34.5 3 -3.5
v 34.5 3 -17.5
v 41.5 3 -17.5

# faces
f 3/2/1 2/2/1 1/2/1
f 4/2/1 2/2/1 3/2/1
f 7/2/1 6/2/1 5/2/1
f 8/2/1 6/2/1 7/2/1
f 9/2/2 10/2/2 11/2/2
f 11/2/2 10/2/2 12/2/2
f 13/2/2 14/2/2 15/2/2
f 15/2/2 14/2/2 16/2/2
f 19/2/3 18/2/3 17/2/3
f 20/2/3 18/2/3 19/2/3
f 23/2/3 22/2/3 21/2/3
f 24/2/3 22/2/3 23/2/3
f 25/2/4 26/2/4 27/2/4
f 27/2/4 26/2/4 28/2/4
f 29/2/4 30/2/4 31/2/4
f 31/2/4 30/2/4 32/2/4
f 35/2/5 34/2/5 33/2/5
f 37/2/5 35/2/5 33/2/5
f 37/2/5 36/2/5 35/2/5
f 38/2/5 36/2/5 37/2/5
f 39/2/5 36/2/5 38/2/5
f 40/2/5 36/2/5 39/2/5
f 41/2/6 42/2/6 43/2/6
f 43/2/6 42/2/6 44/2/6
f 43/3/6 44/3/6 45/3/6
f 45/3/6 44/3/6 46/3/6
f 43/3/6 45/3/6 47/3/6
f 45/1/6 46/1/6 47/1/6
f 46/3/6 44/3/6 48/3/6
f 47/1/6 46/1/6 48/1/6
f 41/2/6 43/2/6 49/2/6
f 43/3/6 47/3/6 49/3/6
f 47/3/6 48/3/6 49/3/6
f 48/3/6 44/3/6 50/3/6
f 49/3/6 48/3/6 50/3/6
f 44/2/6 42/2/6 50/2/6
f 49/2/6 50/2/6 51/2/6
f 50/2/6 42/2/6 51/2/6
f 41/2/6 49/2/6 53/2/6
f 51/2/6 52/2/6 53/2/6
f 49/2/6 51/2/6 53/2/6
f 53/2/6 52/2/6 54/2/6
f 54/2/6 52/2/6 55/2/6
f 55/2/6 52/2/6 56/2/6
