# MagicaVoxel @ ephtracy

# material
mtllib treasure.mtl
usemtl palette

# normals
vn -1 0 0
vn 1 0 0
vn 0 0 1
vn 0 0 -1
vn 0 -1 0
vn 0 1 0

# texcoords
vt 0.224609 0.5
vt 0.310547 0.5
vt 0.478516 0.5

# verts
v -2 1 4
v -2 1 -4
v -2 3 4
v -2 3 -4
v -2 4 4
v -2 4 -4
v -2 6 4
v -2 6 -4
v 4 1 4
v 4 1 -4
v 4 2 1
v 4 2 -1
v 4 3 4
v 4 3 1
v 4 3 -1
v 4 3 -4
v 4 4 4
v 4 4 1
v 4 4 -1
v 4 4 -4
v 4 5 1
v 4 5 -1
v 4 6 4
v 4 6 -4
v -2 1 4
v -2 3 4
v -2 4 4
v -2 6 4
v 4 1 4
v 4 3 4
v 4 4 4
v 4 6 4
v -2 1 -4
v -2 3 -4
v -2 4 -4
v -2 6 -4
v 4 1 -4
v 4 3 -4
v 4 4 -4
v 4 6 -4
v -2 1 4
v 4 1 4
v -1 1 3
v 3 1 3
v -1 1 -3
v 3 1 -3
v -2 1 -4
v 4 1 -4
v -2 6 4
v 4 6 4
v -1 6 3
v 3 6 3
v -1 6 -3
v 3 6 -3
v -2 6 -4
v 4 6 -4

# faces
f 3/2/1 2/2/1 1/2/1
f 4/2/1 2/2/1 3/2/1
f 5/3/1 4/3/1 3/3/1
f 6/3/1 4/3/1 5/3/1
f 7/2/1 6/2/1 5/2/1
f 8/2/1 6/2/1 7/2/1
f 9/2/2 10/2/2 11/2/2
f 11/2/2 10/2/2 12/2/2
f 9/2/2 11/2/2 13/2/2
f 11/3/2 12/3/2 14/3/2
f 13/2/2 11/2/2 14/2/2
f 12/2/2 10/2/2 15/2/2
f 14/3/2 12/3/2 15/3/2
f 15/2/2 10/2/2 16/2/2
f 13/3/2 14/3/2 17/3/2
f 14/3/2 15/3/2 17/3/2
f 15/3/2 16/3/2 17/3/2
f 17/3/2 16/3/2 18/3/2
f 18/3/2 16/3/2 19/3/2
f 19/3/2 16/3/2 20/3/2
f 17/2/2 18/2/2 21/2/2
f 18/3/2 19/3/2 21/3/2
f 19/2/2 20/2/2 22/2/2
f 21/3/2 19/3/2 22/3/2
f 17/2/2 21/2/2 23/2/2
f 21/2/2 22/2/2 23/2/2
f 22/2/2 20/2/2 24/2/2
f 23/2/2 22/2/2 24/2/2
f 29/2/3 26/2/3 25/2/3
f 30/3/3 27/3/3 26/3/3
f 30/2/3 26/2/3 29/2/3
f 31/2/3 28/2/3 27/2/3
f 31/3/3 27/3/3 30/3/3
f 32/2/3 28/2/3 31/2/3
f 33/2/4 34/2/4 37/2/4
f 34/3/4 35/3/4 38/3/4
f 37/2/4 34/2/4 38/2/4
f 35/2/4 36/2/4 39/2/4
f 38/3/4 35/3/4 39/3/4
f 39/2/4 36/2/4 40/2/4
f 43/2/5 42/2/5 41/2/5
f 44/2/5 42/2/5 43/2/5
f 45/2/5 43/2/5 41/2/5
f 45/1/5 44/1/5 43/1/5
f 46/2/5 42/2/5 44/2/5
f 46/1/5 44/1/5 45/1/5
f 47/2/5 45/2/5 41/2/5
f 47/2/5 46/2/5 45/2/5
f 48/2/5 42/2/5 46/2/5
f 48/2/5 46/2/5 47/2/5
f 49/2/6 50/2/6 51/2/6
f 51/2/6 50/2/6 52/2/6
f 49/2/6 51/2/6 53/2/6
f 51/1/6 52/1/6 53/1/6
f 52/2/6 50/2/6 54/2/6
f 53/1/6 52/1/6 54/1/6
f 49/2/6 53/2/6 55/2/6
f 53/2/6 54/2/6 55/2/6
f 54/2/6 50/2/6 56/2/6
f 55/2/6 54/2/6 56/2/6
